<svg width="18" height="18" viewBox="0 0 18 18" fill="none" xmlns="http://www.w3.org/2000/svg">
  <path d="M8.9376 0.269118C8.77848 0.277134 8.62257 0.316587 8.47902 0.385164L2.22133 3.37515C2.05937 3.4525 1.91706 3.56504 1.80497 3.70443C1.69288 3.84381 1.6139 4.00645 1.57388 4.18027L0.0300641 10.8965C-0.00558482 11.0513 -0.0095747 11.2115 0.0183312 11.3678C0.0462372 11.5241 0.105472 11.6733 0.192529 11.8065C0.213638 11.8391 0.23634 11.8706 0.260555 11.9009L4.59188 17.2863C4.70399 17.4256 4.84632 17.5381 5.00828 17.6154C5.17025 17.6927 5.3477 17.7329 5.52745 17.7328L12.4734 17.7312C12.6531 17.7314 12.8305 17.6914 12.9925 17.6142C13.1544 17.537 13.2968 17.4247 13.409 17.2855L17.7387 11.8993C17.8509 11.7599 17.9299 11.5972 17.97 11.4233C18.01 11.2494 18.01 11.0688 17.97 10.8949L16.4238 4.17867C16.3838 4.00485 16.3048 3.84221 16.1927 3.70283C16.0806 3.56344 15.9383 3.4509 15.7763 3.37355L9.51783 0.385164C9.33727 0.2989 9.13776 0.258997 8.9376 0.269118Z" fill="#F5F5F5"/>
  <path transform="translate(-1.57 -0.92)" d="m 14.269566,9.6934441 -0.692781,0 0,-1.847416 c 0,-0.5080383 -0.415668,-0.9237063 -0.923706,-0.9237063 l -1.847416,0 0,-0.69278 c 0,-0.637359 -0.517275,-1.154636 -1.1546334,-1.154636 -0.6373578,0 -1.1546338,0.517277 -1.1546338,1.154636 l 0,0.69278 -1.847416,0 c -0.508038,0 -0.919089,0.415668 -0.919089,0.9237063 l 0,1.755045 0.688164,0 c 0.688161,0 1.247005,0.5588429 1.247005,1.2470049 0,0.688162 -0.558844,1.247005 -1.247005,1.247005 l -0.692781,0 0,1.755045 c 0,0.508038 0.415668,0.923706 0.923706,0.923706 l 1.755045,0 0,-0.692781 c 0,-0.688161 0.558843,-1.247005 1.2470048,-1.247005 0.6881624,0 1.2470044,0.558844 1.2470044,1.247005 l 0,0.692781 1.755045,0 c 0.508038,0 0.923706,-0.415668 0.923706,-0.923706 l 0,-1.847416 0.692781,0 c 0.637358,0 1.154635,-0.517276 1.154635,-1.154634 0,-0.637358 -0.517277,-1.1546339 -1.154635,-1.1546339 z" fill="#326CE5"/>
</svg>
