<svg width="18" height="18" viewBox="0 0 18 18" fill="none" xmlns="http://www.w3.org/2000/svg">
<g clip-path="url(#clip0_11743_19983)">
<path d="M9.52306 9.83892C8.75651 10.6061 8.75651 11.8493 9.52306 12.6164C10.2902 13.383 11.5334 13.383 12.3 12.6164C13.0671 11.8493 13.0671 10.6061 12.3 9.83892C11.5334 9.07236 10.2902 9.07236 9.52306 9.83892ZM11.599 11.9166C11.5088 12.007 11.4016 12.0787 11.2837 12.1276C11.1657 12.1765 11.0392 12.2017 10.9115 12.2017C10.7838 12.2017 10.6574 12.1765 10.5394 12.1276C10.4214 12.0787 10.3143 12.007 10.224 11.9166C10.1337 11.8264 10.0621 11.7193 10.0132 11.6013C9.96437 11.4834 9.93922 11.357 9.93922 11.2293C9.93922 11.1017 9.96437 10.9753 10.0132 10.8574C10.0621 10.7394 10.1337 10.6323 10.224 10.5421C10.3143 10.4517 10.4214 10.38 10.5394 10.3311C10.6574 10.2822 10.7838 10.257 10.9115 10.257C11.0392 10.257 11.1657 10.2822 11.2837 10.3311C11.4016 10.38 11.5088 10.4517 11.599 10.5421C11.9787 10.9199 11.9787 11.537 11.599 11.9166ZM12.2675 0.176564L11.0642 1.37974C10.9509 1.49387 10.8874 1.64816 10.8874 1.80897C10.8874 1.96978 10.9509 2.12407 11.0642 2.23821L15.7619 6.9359C15.8761 7.04918 16.0303 7.11275 16.1911 7.11275C16.352 7.11275 16.5062 7.04918 16.6204 6.9359L17.8236 5.73258C18.0588 5.49733 18.0588 5.10995 17.8236 4.87484L13.1238 0.176418C13.01 0.0634146 12.8561 0 12.6957 0C12.5353 0 12.3814 0.0635607 12.2675 0.176564ZM3.83743 15.552C3.94003 15.449 3.99763 15.3095 3.99763 15.1641C3.99763 15.0186 3.94003 14.8792 3.83743 14.7761L3.2262 14.1643C3.12304 14.0617 2.98349 14.0042 2.83803 14.0042C2.69257 14.0042 2.55302 14.0617 2.44985 14.1643L1.18677 15.4281L1.18443 15.4299L0.837976 15.0828C0.646118 14.891 0.333854 14.891 0.143894 15.0828C-0.0479647 15.2745 -0.0479647 15.5868 0.143894 15.7769L2.22556 17.858C2.27106 17.9036 2.32511 17.9397 2.38461 17.9644C2.44411 17.9891 2.50789 18.0018 2.57231 18.0018C2.63672 18.0018 2.7005 17.9891 2.76 17.9644C2.8195 17.9397 2.87355 17.9036 2.91905 17.858C3.10901 17.6661 3.11091 17.3539 2.91905 17.1645L2.57201 16.8174L2.57435 16.8157L3.83743 15.552Z" fill="#F5A800"/>
<path d="M10.2024 3.63105L7.52937 6.30392C7.29192 6.54137 7.29192 6.93239 7.52937 7.16984L9.17997 8.82001C10.3466 7.98039 11.9826 8.08428 13.0322 9.13461L14.3689 7.79773C14.6059 7.56028 14.6059 7.16984 14.3689 6.93239L11.0679 3.63105C11.0111 3.57419 10.9436 3.52908 10.8694 3.4983C10.7951 3.46752 10.7156 3.45168 10.6352 3.45168C10.5548 3.45168 10.4753 3.46752 10.401 3.4983C10.3268 3.52908 10.2592 3.57419 10.2024 3.63105ZM8.48589 9.5157L7.51096 8.54077C7.28257 8.31252 6.9082 8.31252 6.6804 8.54077L3.24213 11.9805C3.13246 12.091 3.07091 12.2403 3.07091 12.396C3.07091 12.5517 3.13246 12.701 3.24213 12.8115L5.19009 14.7596C5.30057 14.8693 5.44996 14.9309 5.60566 14.9309C5.76137 14.9309 5.91076 14.8693 6.02124 14.7596L8.23236 12.5448C7.76492 11.5791 7.84879 10.4124 8.48589 9.5157Z" fill="#425CC7"/>
</g>
<defs>
<clipPath id="clip0_11743_19983">
<rect width="18" height="18.0018" fill="white"/>
</clipPath>
</defs>
</svg>
