<svg width="18" height="18" viewBox="0 0 18 18" fill="none" xmlns="http://www.w3.org/2000/svg">
<g clip-path="url(#clip0_11743_20070)">
<rect y="0.5" width="18" height="17" rx="6" fill="#F5F5F5"/>
<path d="M13 4H5C3.89543 4 3 4.99492 3 6.22222V11.7778C3 13.0051 3.89543 14 5 14H13C14.1046 14 15 13.0051 15 11.7778V6.22222C15 4.99492 14.1046 4 13 4Z" stroke="#F5A800" stroke-miterlimit="10" stroke-linejoin="round"/>
<path d="M12 10.5C12 11.0523 11.5523 11.5 11 11.5C10.4477 11.5 10 11.0523 10 10.5C10 9.94772 10.4477 9.5 11 9.5C11.5523 9.5 12 9.94772 12 10.5Z" fill="#425CC7"/>
<path d="M8 10.5C8 11.0523 7.55228 11.5 7 11.5C6.44772 11.5 6 11.0523 6 10.5C6 9.94772 6.44772 9.5 7 9.5C7.55228 9.5 8 9.94772 8 10.5Z" fill="#425CC7"/>
<path d="M10 7.5C10 8.05228 9.55228 8.5 9 8.5C8.44772 8.5 8 8.05228 8 7.5C8 6.94772 8.44772 6.5 9 6.5C9.55228 6.5 10 6.94772 10 7.5Z" fill="#425CC7"/>
</g>
<defs>
<clipPath id="clip0_11743_20070">
<rect width="18" height="18" fill="white"/>
</clipPath>
</defs>
</svg>
