<svg width="18" height="18" viewBox="0 0 18 18" fill="none" xmlns="http://www.w3.org/2000/svg">
<g clip-path="url(#clip0_11743_20038)">
<rect y="0.5" width="18" height="17" rx="6" fill="#F5F5F5"/>
<path d="M4 8.4999H9V9.4999H4V8.4999Z" fill="#425CC7"/>
<path d="M8.35282 8.65738L11.9144 4.84668L12.645 5.5295L9.0834 9.34021L8.35282 8.65738Z" fill="#425CC7"/>
<path d="M8.36322 9.35355L11.9141 13.1528L12.6447 12.47L9.0938 8.67073L8.36322 9.35355Z" fill="#425CC7"/>
<path d="M6 9C6 9.82843 5.32843 10.5 4.5 10.5C3.67157 10.5 3 9.82843 3 9C3 8.17157 3.67157 7.5 4.5 7.5C5.32843 7.5 6 8.17157 6 9Z" fill="#F5A800"/>
<path d="M14 5C14 5.82843 13.3284 6.5 12.5 6.5C11.6716 6.5 11 5.82843 11 5C11 4.17157 11.6716 3.5 12.5 3.5C13.3284 3.5 14 4.17157 14 5Z" fill="#F5A800"/>
<path d="M14 13C14 13.8284 13.3284 14.5 12.5 14.5C11.6716 14.5 11 13.8284 11 13C11 12.1716 11.6716 11.5 12.5 11.5C13.3284 11.5 14 12.1716 14 13Z" fill="#F5A800"/>
</g>
<defs>
<clipPath id="clip0_11743_20038">
<rect width="18" height="18" fill="white"/>
</clipPath>
</defs>
</svg>
