<svg width="18" height="18" viewBox="0 0 18 18" fill="none" xmlns="http://www.w3.org/2000/svg">
<g clip-path="url(#clip0_11781_22018)">
<rect y="0.5" width="18" height="17" rx="6" fill="#F5F5F5"/>
<path d="M4.11111 5.33333C4.11111 5.81956 4.62619 6.28588 5.54304 6.6297C6.45988 6.97351 7.70339 7.16667 9 7.16667C10.2966 7.16667 11.5401 6.97351 12.457 6.6297C13.3738 6.28588 13.8889 5.81956 13.8889 5.33333M4.11111 5.33333C4.11111 4.8471 4.62619 4.38079 5.54304 4.03697C6.45988 3.69315 7.70339 3.5 9 3.5C10.2966 3.5 11.5401 3.69315 12.457 4.03697C13.3738 4.38079 13.8889 4.8471 13.8889 5.33333M4.11111 5.33333V9M13.8889 5.33333V9M4.11111 9C4.11111 9.48623 4.62619 9.95255 5.54304 10.2964C6.45988 10.6402 7.70339 10.8333 9 10.8333C10.2966 10.8333 11.5401 10.6402 12.457 10.2964C13.3738 9.95255 13.8889 9.48623 13.8889 9M4.11111 9V12.6667C4.11111 13.1529 4.62619 13.6192 5.54304 13.963C6.45988 14.3068 7.70339 14.5 9 14.5C10.2966 14.5 11.5401 14.3068 12.457 13.963C13.3738 13.6192 13.8889 13.1529 13.8889 12.6667V9" stroke="#F5A800" stroke-linecap="round" stroke-linejoin="round"/>
<path d="M7.5 8.75C7.5 9.16421 7.16421 9.5 6.75 9.5C6.33579 9.5 6 9.16421 6 8.75C6 8.33579 6.33579 8 6.75 8C7.16421 8 7.5 8.33579 7.5 8.75Z" fill="#425CC7"/>
<path d="M7.5 12.45C7.5 12.8642 7.16421 13.2 6.75 13.2C6.33579 13.2 6 12.8642 6 12.45C6 12.0357 6.33579 11.7 6.75 11.7C7.16421 11.7 7.5 12.0357 7.5 12.45Z" fill="#425CC7"/>
</g>
<defs>
<clipPath id="clip0_11781_22018">
<rect width="18" height="18" fill="white"/>
</clipPath>
</defs>
</svg>
