<svg width="18" height="18" viewBox="0 0 18 18" fill="none" xmlns="http://www.w3.org/2000/svg">
<g clip-path="url(#clip0_11781_22047)">
<rect y="0.5" width="18" height="17" rx="6" fill="#F5F5F5"/>
<path d="M6.70233 11.1872C6.55637 11.1872 6.41639 11.1257 6.31318 11.0162C6.20998 10.9067 6.152 10.7582 6.152 10.6034V7.0838C6.152 6.92897 6.20998 6.78048 6.31318 6.67099C6.41639 6.56151 6.55637 6.5 6.70233 6.5C6.84828 6.5 6.98826 6.56151 7.09147 6.67099C7.19467 6.78048 7.25265 6.92897 7.25265 7.0838V10.6034C7.25265 10.7582 7.19467 10.9067 7.09147 11.0162C6.98826 11.1257 6.84828 11.1872 6.70233 11.1872Z" fill="#425CC7"/>
<path d="M11.2584 11.1872C11.1124 11.1872 10.9724 11.1257 10.8692 11.0162C10.766 10.9067 10.708 10.7582 10.708 10.6034V5.0838C10.708 4.92897 10.766 4.78048 10.8692 4.67099C10.9724 4.56151 11.1124 4.5 11.2584 4.5C11.4043 4.5 11.5443 4.56151 11.6475 4.67099C11.7507 4.78048 11.8087 4.92897 11.8087 5.0838V10.6034C11.8087 10.7582 11.7507 10.9067 11.6475 11.0162C11.5443 11.1257 11.4043 11.1872 11.2584 11.1872Z" fill="#425CC7"/>
<path d="M13.3671 8.24579C13.2336 8.27324 13.1135 8.34976 13.0279 8.46188C12.9424 8.574 12.8968 8.71455 12.8993 8.85878V12.3324H5.10069V8.85878C5.10318 8.71455 5.05763 8.574 4.97207 8.46188C4.88651 8.34976 4.76641 8.27324 4.63291 8.24579C4.55404 8.23309 4.47351 8.23873 4.39689 8.26233C4.32028 8.28592 4.24942 8.32691 4.18921 8.38244C4.12901 8.43797 4.08091 8.50672 4.04825 8.58393C4.01558 8.66114 3.99913 8.74497 4.00004 8.82959V12.9162C4.00004 13.071 4.05802 13.2195 4.16122 13.329C4.26443 13.4385 4.40441 13.5 4.55036 13.5H13.4496C13.5956 13.5 13.7356 13.4385 13.8388 13.329C13.942 13.2195 13.9999 13.071 13.9999 12.9162V8.82959C14.0009 8.74497 13.9844 8.66114 13.9517 8.58393C13.9191 8.50672 13.871 8.43797 13.8108 8.38244C13.7506 8.32691 13.6797 8.28592 13.6031 8.26233C13.5265 8.23873 13.4459 8.23309 13.3671 8.24579Z" fill="#F5A800"/>
<path d="M8.96809 11.1873C8.82213 11.1873 8.68215 11.1258 8.57894 11.0163C8.47574 10.9069 8.41776 10.7584 8.41776 10.6035V5.08396C8.41776 4.92913 8.47574 4.78064 8.57894 4.67115C8.68215 4.56167 8.82213 4.50016 8.96809 4.50016C9.11404 4.50016 9.25402 4.56167 9.35723 4.67115C9.46043 4.78064 9.51841 4.92913 9.51841 5.08396V10.6035C9.51841 10.7584 9.46043 10.9069 9.35723 11.0163C9.25402 11.1258 9.11404 11.1873 8.96809 11.1873Z" fill="#425CC7"/>
</g>
<defs>
<clipPath id="clip0_11781_22047">
<rect width="18" height="18" fill="white"/>
</clipPath>
</defs>
</svg>
