<svg xmlns="http://www.w3.org/2000/svg" viewBox="0 0 64 64" width="64" height="64" fill="none">
  <!-- Kubernetes-style heptagon (matches community CRD icon) -->
  <path d="M32 4 L53.9 14.5 L59.3 38.2 L44.2 57.2 L19.9 57.2 L4.7 38.2 L10.1 14.5 Z" stroke="#326CE5" stroke-width="2.5" stroke-linejoin="round" fill="#326CE5" fill-opacity="0.08"/>
  <!-- CRD puzzle piece (left) - shape lifted from community CRD icon -->
  <g transform="translate(7.19, 15.58) scale(1.4)" fill="#326CE5">
    <path d="M14.269566,9.6934441 l-0.692781,0 l0,-1.847416 c0,-0.5080383 -0.415668,-0.9237063 -0.923706,-0.9237063 l-1.847416,0 l0,-0.69278 c0,-0.637359 -0.517275,-1.154636 -1.1546334,-1.154636 c-0.6373578,0 -1.1546338,0.517277 -1.1546338,1.154636 l0,0.69278 l-1.847416,0 c-0.508038,0 -0.919089,0.415668 -0.919089,0.9237063 l0,1.755045 l0.688164,0 c0.688161,0 1.247005,0.5588429 1.247005,1.2470049 c0,0.688162 -0.558844,1.247005 -1.247005,1.247005 l-0.692781,0 l0,1.755045 c0,0.508038 0.415668,0.923706 0.923706,0.923706 l1.755045,0 l0,-0.692781 c0,-0.688161 0.558843,-1.247005 1.2470048,-1.247005 c0.6881624,0 1.2470044,0.558844 1.2470044,1.247005 l0,0.692781 l1.755045,0 c0.508038,0 0.923706,-0.415668 0.923706,-0.923706 l0,-1.847416 l0.692781,0 c0.637358,0 1.154635,-0.517276 1.154635,-1.154634 c0,-0.637358 -0.517277,-1.1546339 -1.154635,-1.1546339 z"/>
  </g>
  <!-- Arrow from CRD to CR -->
  <line x1="30" y1="29.5" x2="34" y2="29.5" stroke="#326CE5" stroke-width="1.5"/>
  <polyline points="33 27.5 35 29.5 33 31.5" stroke="#326CE5" stroke-width="1.5" fill="none"/>
  <!-- CR cube (right) -->
  <path d="M43 24l-6 3 6 3 6-3-6-3z" stroke="#326CE5" stroke-width="1.5"/>
  <path d="M37 33l6 3 6-3" stroke="#326CE5" stroke-width="1.5"/>
  <path d="M37 27l6 3v6" stroke="#326CE5" stroke-width="1.5"/>
  <path d="M49 27l-6 3v6" stroke="#326CE5" stroke-width="1.5"/>
</svg>
